<svg xmlns="http://www.w3.org/2000/svg" xmlns:xlink="http://www.w3.org/1999/xlink" viewBox="0 0 50 29.16"><defs><style>.cls-1{fill:none;}.cls-2{clip-path:url(#clip-path);}.cls-3{fill:#cb001c;}.cls-4{fill:#fff;}.cls-5{fill:#2a3560;}</style><clipPath id="clip-path"><rect class="cls-1" width="50" height="29.16"/></clipPath></defs><title>svg_EN</title><g id="Capa_2" data-name="Capa 2"><g id="_4" data-name="4"><g id="USA"><g class="cls-2"><rect class="cls-3" y="26.92" width="50" height="2.24"/><rect class="cls-4" y="24.68" width="50" height="2.24"/><rect class="cls-3" y="22.44" width="50" height="2.24"/><rect class="cls-4" y="20.19" width="50" height="2.24"/><rect class="cls-3" y="17.95" width="50" height="2.24"/><rect class="cls-4" y="15.71" width="50" height="2.24"/><rect class="cls-3" y="13.46" width="50" height="2.25"/><rect class="cls-4" y="11.22" width="50" height="2.24"/><rect class="cls-3" y="8.98" width="50" height="2.24"/><rect class="cls-4" y="6.73" width="50" height="2.24"/><rect class="cls-3" y="4.49" width="50" height="2.24"/><rect class="cls-4" y="2.24" width="50" height="2.24"/><rect class="cls-3" width="50" height="2.24"/><rect class="cls-5" width="22.83" height="15.71"/><polygon class="cls-4" points="2.06 1.73 2.26 2.33 2.88 2.33 2.38 2.69 2.57 3.29 2.06 2.92 1.56 3.29 1.75 2.69 1.25 2.33 1.87 2.33 2.06 1.73"/><polygon class="cls-4" points="2.06 4.35 2.26 4.95 2.88 4.95 2.38 5.31 2.57 5.91 2.06 5.54 1.56 5.91 1.75 5.31 1.25 4.95 1.87 4.95 2.06 4.35"/><polygon class="cls-4" points="2.06 6.98 2.26 7.57 2.88 7.57 2.38 7.93 2.57 8.53 2.06 8.16 1.56 8.53 1.75 7.93 1.25 7.57 1.87 7.57 2.06 6.98"/><polygon class="cls-4" points="2.06 9.6 2.26 10.19 2.88 10.19 2.38 10.56 2.57 11.15 2.06 10.78 1.56 11.15 1.75 10.56 1.25 10.19 1.87 10.19 2.06 9.6"/><polygon class="cls-4" points="2.06 12.22 2.26 12.81 2.88 12.81 2.38 13.18 2.57 13.77 2.06 13.4 1.56 13.77 1.75 13.18 1.25 12.81 1.87 12.81 2.06 12.22"/><polygon class="cls-4" points="3.89 3.11 4.08 3.71 4.71 3.71 4.2 4.08 4.39 4.67 3.89 4.3 3.39 4.67 3.58 4.08 3.07 3.71 3.7 3.71 3.89 3.11"/><polygon class="cls-4" points="3.89 5.74 4.08 6.33 4.71 6.33 4.2 6.7 4.39 7.29 3.89 6.92 3.39 7.29 3.58 6.7 3.07 6.33 3.7 6.33 3.89 5.74"/><polygon class="cls-4" points="3.89 8.36 4.08 8.95 4.71 8.95 4.2 9.32 4.39 9.91 3.89 9.54 3.39 9.91 3.58 9.32 3.07 8.95 3.7 8.95 3.89 8.36"/><polygon class="cls-4" points="3.89 10.98 4.08 11.57 4.71 11.57 4.2 11.94 4.39 12.53 3.89 12.16 3.39 12.53 3.58 11.94 3.07 11.57 3.7 11.57 3.89 10.98"/><polygon class="cls-4" points="5.74 1.73 5.93 2.33 6.55 2.33 6.05 2.69 6.24 3.29 5.74 2.92 5.23 3.29 5.43 2.69 4.92 2.33 5.54 2.33 5.74 1.73"/><polygon class="cls-4" points="5.74 4.35 5.93 4.95 6.55 4.95 6.05 5.31 6.24 5.91 5.74 5.54 5.23 5.91 5.43 5.31 4.92 4.95 5.54 4.95 5.74 4.35"/><polygon class="cls-4" points="5.74 6.98 5.93 7.57 6.55 7.57 6.05 7.93 6.24 8.53 5.74 8.16 5.23 8.53 5.43 7.93 4.92 7.57 5.54 7.57 5.74 6.98"/><polygon class="cls-4" points="5.74 9.6 5.93 10.19 6.55 10.19 6.05 10.56 6.24 11.15 5.74 10.78 5.23 11.15 5.43 10.56 4.92 10.19 5.54 10.19 5.74 9.6"/><polygon class="cls-4" points="5.74 12.22 5.93 12.81 6.55 12.81 6.05 13.18 6.24 13.77 5.74 13.4 5.23 13.77 5.43 13.18 4.92 12.81 5.54 12.81 5.74 12.22"/><polygon class="cls-4" points="7.56 3.11 7.75 3.71 8.38 3.71 7.87 4.08 8.07 4.67 7.56 4.3 7.06 4.67 7.25 4.08 6.74 3.71 7.37 3.71 7.56 3.11"/><polygon class="cls-4" points="7.56 5.74 7.75 6.33 8.38 6.33 7.87 6.7 8.07 7.29 7.56 6.92 7.06 7.29 7.25 6.7 6.74 6.33 7.37 6.33 7.56 5.74"/><polygon class="cls-4" points="7.56 8.36 7.75 8.95 8.38 8.95 7.87 9.32 8.07 9.91 7.56 9.54 7.06 9.91 7.25 9.32 6.74 8.95 7.37 8.95 7.56 8.36"/><polygon class="cls-4" points="7.56 10.98 7.75 11.57 8.38 11.57 7.87 11.94 8.07 12.53 7.56 12.16 7.06 12.53 7.25 11.94 6.74 11.57 7.37 11.57 7.56 10.98"/><polygon class="cls-4" points="9.41 1.73 9.61 2.33 10.23 2.33 9.72 2.69 9.92 3.29 9.41 2.92 8.91 3.29 9.1 2.69 8.6 2.33 9.22 2.33 9.41 1.73"/><polygon class="cls-4" points="9.41 4.35 9.61 4.95 10.23 4.95 9.72 5.31 9.92 5.91 9.41 5.54 8.91 5.91 9.1 5.31 8.6 4.95 9.22 4.95 9.41 4.35"/><polygon class="cls-4" points="9.41 6.98 9.61 7.57 10.23 7.57 9.72 7.93 9.92 8.53 9.41 8.16 8.91 8.53 9.1 7.93 8.6 7.57 9.22 7.57 9.41 6.98"/><polygon class="cls-4" points="9.41 9.6 9.61 10.19 10.23 10.19 9.72 10.56 9.92 11.15 9.41 10.78 8.91 11.15 9.1 10.56 8.6 10.19 9.22 10.19 9.41 9.6"/><polygon class="cls-4" points="9.41 12.22 9.61 12.81 10.23 12.81 9.72 13.18 9.92 13.77 9.41 13.4 8.91 13.77 9.1 13.18 8.6 12.81 9.22 12.81 9.41 12.22"/><polygon class="cls-4" points="11.24 3.11 11.43 3.71 12.05 3.71 11.55 4.08 11.74 4.67 11.24 4.3 10.74 4.67 10.93 4.08 10.42 3.71 11.04 3.71 11.24 3.11"/><polygon class="cls-4" points="11.24 5.74 11.43 6.33 12.05 6.33 11.55 6.7 11.74 7.29 11.24 6.92 10.74 7.29 10.93 6.7 10.42 6.33 11.04 6.33 11.24 5.74"/><polygon class="cls-4" points="11.24 8.36 11.43 8.95 12.05 8.95 11.55 9.32 11.74 9.91 11.24 9.54 10.74 9.91 10.93 9.32 10.42 8.95 11.04 8.95 11.24 8.36"/><polygon class="cls-4" points="11.24 10.98 11.43 11.57 12.05 11.57 11.55 11.94 11.74 12.53 11.24 12.16 10.74 12.53 10.93 11.94 10.42 11.57 11.04 11.57 11.24 10.98"/><polygon class="cls-4" points="13.08 1.73 13.28 2.33 13.9 2.33 13.4 2.69 13.59 3.29 13.08 2.92 12.58 3.29 12.77 2.69 12.27 2.33 12.89 2.33 13.08 1.73"/><polygon class="cls-4" points="13.08 4.35 13.28 4.95 13.9 4.95 13.4 5.31 13.59 5.91 13.08 5.54 12.58 5.91 12.77 5.31 12.27 4.95 12.89 4.95 13.08 4.35"/><polygon class="cls-4" points="13.08 6.98 13.28 7.57 13.9 7.57 13.4 7.93 13.59 8.53 13.08 8.16 12.58 8.53 12.77 7.93 12.27 7.57 12.89 7.57 13.08 6.98"/><polygon class="cls-4" points="13.08 9.6 13.28 10.19 13.9 10.19 13.4 10.56 13.59 11.15 13.08 10.78 12.58 11.15 12.77 10.56 12.27 10.19 12.89 10.19 13.08 9.6"/><polygon class="cls-4" points="13.08 12.22 13.28 12.81 13.9 12.81 13.4 13.18 13.59 13.77 13.08 13.4 12.58 13.77 12.77 13.18 12.27 12.81 12.89 12.81 13.08 12.22"/><polygon class="cls-4" points="14.91 3.11 15.1 3.71 15.73 3.71 15.22 4.08 15.42 4.67 14.91 4.3 14.41 4.67 14.6 4.08 14.1 3.71 14.72 3.71 14.91 3.11"/><polygon class="cls-4" points="14.91 5.74 15.1 6.33 15.73 6.33 15.22 6.7 15.42 7.29 14.91 6.92 14.41 7.29 14.6 6.7 14.1 6.33 14.72 6.33 14.91 5.74"/><polygon class="cls-4" points="14.91 8.36 15.1 8.95 15.73 8.95 15.22 9.32 15.42 9.91 14.91 9.54 14.41 9.91 14.6 9.32 14.1 8.95 14.72 8.95 14.91 8.36"/><polygon class="cls-4" points="14.91 10.98 15.1 11.57 15.73 11.57 15.22 11.94 15.42 12.53 14.91 12.16 14.41 12.53 14.6 11.94 14.1 11.57 14.72 11.57 14.91 10.98"/><polygon class="cls-4" points="16.76 1.73 16.96 2.33 17.58 2.33 17.08 2.69 17.27 3.29 16.76 2.92 16.26 3.29 16.45 2.69 15.95 2.33 16.57 2.33 16.76 1.73"/><polygon class="cls-4" points="16.76 4.35 16.96 4.95 17.58 4.95 17.08 5.31 17.27 5.91 16.76 5.54 16.26 5.91 16.45 5.31 15.95 4.95 16.57 4.95 16.76 4.35"/><polygon class="cls-4" points="16.76 6.98 16.96 7.57 17.58 7.57 17.08 7.93 17.27 8.53 16.76 8.16 16.26 8.53 16.45 7.93 15.95 7.57 16.57 7.57 16.76 6.98"/><polygon class="cls-4" points="16.76 9.6 16.96 10.19 17.58 10.19 17.08 10.56 17.27 11.15 16.76 10.78 16.26 11.15 16.45 10.56 15.95 10.19 16.57 10.19 16.76 9.6"/><polygon class="cls-4" points="16.76 12.22 16.96 12.81 17.58 12.81 17.08 13.18 17.27 13.77 16.76 13.4 16.26 13.77 16.45 13.18 15.95 12.81 16.57 12.81 16.76 12.22"/><polygon class="cls-4" points="18.59 3.11 18.78 3.71 19.4 3.71 18.9 4.08 19.09 4.67 18.59 4.3 18.08 4.67 18.27 4.08 17.77 3.71 18.39 3.71 18.59 3.11"/><polygon class="cls-4" points="18.59 5.74 18.78 6.33 19.4 6.33 18.9 6.7 19.09 7.29 18.59 6.92 18.08 7.29 18.27 6.7 17.77 6.33 18.39 6.33 18.59 5.74"/><polygon class="cls-4" points="18.59 8.36 18.78 8.95 19.4 8.95 18.9 9.32 19.09 9.91 18.59 9.54 18.08 9.91 18.27 9.32 17.77 8.95 18.39 8.95 18.59 8.36"/><polygon class="cls-4" points="18.59 10.98 18.78 11.57 19.4 11.57 18.9 11.94 19.09 12.53 18.59 12.16 18.08 12.53 18.27 11.94 17.77 11.57 18.39 11.57 18.59 10.98"/><polygon class="cls-4" points="20.43 1.73 20.63 2.33 21.25 2.33 20.75 2.69 20.94 3.29 20.43 2.92 19.93 3.29 20.12 2.69 19.62 2.33 20.24 2.33 20.43 1.73"/><polygon class="cls-4" points="20.43 4.35 20.63 4.95 21.25 4.95 20.75 5.31 20.94 5.91 20.43 5.54 19.93 5.91 20.12 5.31 19.62 4.95 20.24 4.95 20.43 4.35"/><polygon class="cls-4" points="20.43 6.98 20.63 7.57 21.25 7.57 20.75 7.93 20.94 8.53 20.43 8.16 19.93 8.53 20.12 7.93 19.62 7.57 20.24 7.57 20.43 6.98"/><polygon class="cls-4" points="20.43 9.6 20.63 10.19 21.25 10.19 20.75 10.56 20.94 11.15 20.43 10.78 19.93 11.15 20.12 10.56 19.62 10.19 20.24 10.19 20.43 9.6"/><polygon class="cls-4" points="20.43 12.22 20.63 12.81 21.25 12.81 20.75 13.18 20.94 13.77 20.43 13.4 19.93 13.77 20.12 13.18 19.62 12.81 20.24 12.81 20.43 12.22"/></g></g></g></g></svg>