<svg id="Capa_1" data-name="Capa 1" xmlns="http://www.w3.org/2000/svg" viewBox="0 0 53 57.04"><defs><style>.cls-1{fill:#8DFFAA;}</style></defs><title>svg_Web</title><path class="cls-1" d="M53,25A26.36,26.36,0,0,0,46.47,9.13a26.43,26.43,0,0,0-17.42-9L28,0V0H25V0c-.41,0-.81.05-1.21.09a26.37,26.37,0,0,0-15.3,7,26.64,26.64,0,0,0-2.1,2.19A26.37,26.37,0,0,0,0,25H0v3H0A26.36,26.36,0,0,0,6.53,43.87a26.43,26.43,0,0,0,17.42,9L25,53v0h1.3a3,3,0,0,0,.44,0H28v0c.41,0,.81-.05,1.21-.09a25.83,25.83,0,0,0,6-1.37L38.1,57l9.26-4.8-3.15-6.08.29-.25a26.6,26.6,0,0,0,1.94-2h1.74a3,3,0,0,0,2-5.21l-.14-.13A26.21,26.21,0,0,0,53,28h0V25Zm-3,0H41a34.49,34.49,0,0,0-2.53-11.7,34.53,34.53,0,0,0,5.46-2.54A23.4,23.4,0,0,1,49.94,25ZM41.61,8.54a32,32,0,0,1-4.45,2,35.83,35.83,0,0,0-4.47-6.69A23.42,23.42,0,0,1,41.61,8.54ZM28,3.26a33.72,33.72,0,0,1,6.18,8.16,31.43,31.43,0,0,1-6.18.9Zm7.51,10.94A31.34,31.34,0,0,1,38,25H35.3l-6.77-6.21a3.08,3.08,0,0,0-.53-.38V15.32A34.91,34.91,0,0,0,35.51,14.21Zm-12,34a33.82,33.82,0,0,1-4.68-6.61,31.49,31.49,0,0,1,4.68-.79Zm-6-9.39A31.34,31.34,0,0,1,15,28H23.5v9.78A34.77,34.77,0,0,0,17.49,38.79ZM23.5,21v4H15a32.76,32.76,0,0,1,2.22-10.77A37,37,0,0,0,25,15.32v3.08A2.94,2.94,0,0,0,23.5,21ZM25,3.05h0v9.28a34.09,34.09,0,0,1-6.48-.88A29,29,0,0,1,25,3.05Zm-5,.88a32.63,32.63,0,0,0-4.37,6.67A30.25,30.25,0,0,1,11.2,8.71,23.44,23.44,0,0,1,19.95,3.94Zm-11,7a33,33,0,0,0,5.4,2.45A35.8,35.8,0,0,0,12,25h-9A23.4,23.4,0,0,1,9,10.91ZM3.06,28h9a34.49,34.49,0,0,0,2.53,11.7A34.53,34.53,0,0,0,9.1,42.24,23.4,23.4,0,0,1,3.06,28Zm8.33,16.46a32,32,0,0,1,4.45-2,35.83,35.83,0,0,0,4.47,6.69A23.42,23.42,0,0,1,11.39,44.46Zm21.66,4.61.56-.68.22.42C33.57,48.89,33.32,49,33.05,49.06ZM39.39,53,38,50.35h0l-.32-.62-2.12-4.09h0L34,42.55l-.09.09h0L26.5,50V21L28,22.38h0l9.67,8.87h0l2.65,2.43h0l5.95,5.46h0l1.92,1.76H38.1L43.32,51Zm1.44-22.93c.06-.68.11-1.36.14-2.07h9a23.21,23.21,0,0,1-2.18,8.44Z"/></svg>