<svg id="Capa_1" data-name="Capa 1" xmlns="http://www.w3.org/2000/svg" viewBox="0 0 678.34 523.05"><defs><style>.cls-1{fill:#8DFFAA;}</style></defs><title>cloud</title><path class="cls-1" d="M661.17,179.64a201.6,201.6,0,0,0-43.87-60.19c-37.23-35.36-85.21-55.74-131.63-55.9A159.12,159.12,0,0,0,465,64.81C428.15,23.4,377.88,0,324.5,0c-40.34,0-79.09,13.3-112.08,38.46A210.56,210.56,0,0,0,149.8,116.8c-33.69,4.66-67.36,20.68-94.79,45.54C19.54,194.48,0,236,0,279.17c0,43,32.73,77.91,73,77.91h236.2v36.45H264.38L339.16,523,414,393.53H369.17V357.08h236.2c40.24,0,73-34.95,73-77.91V254.84A175.11,175.11,0,0,0,661.17,179.64Zm-42.83,99.53c0,9.54-6.06,17.91-13,17.91H369.17V238.74a30,30,0,0,0-60,0v58.33H73c-6.91,0-13-8.37-13-17.91,0-57.41,60-103.66,109.8-103.78h.42l21,.09,7.25-19.76C219.85,97.57,269.3,60,324.5,60c40.27,0,78.32,20.2,104.38,55.42l12,16.21,19.54-5a99.16,99.16,0,0,1,25-3.1c61.45.22,132.89,57.62,132.89,131.29Z"/></svg>